<?xml version="1.0" encoding="utf-8" standalone="no"?>
<!DOCTYPE svg PUBLIC "-//W3C//DTD SVG 1.1//EN"
  "http://www.w3.org/Graphics/SVG/1.1/DTD/svg11.dtd">
<svg xmlns:xlink="http://www.w3.org/1999/xlink" width="691.2pt" height="352.8pt" viewBox="0 0 691.2 352.8" xmlns="http://www.w3.org/2000/svg" version="1.1">
 <metadata>
  <rdf:RDF xmlns:dc="http://purl.org/dc/elements/1.1/" xmlns:cc="http://creativecommons.org/ns#" xmlns:rdf="http://www.w3.org/1999/02/22-rdf-syntax-ns#">
   <cc:Work>
    <dc:type rdf:resource="http://purl.org/dc/dcmitype/StillImage"/>
    <dc:date>2026-03-06T08:07:36.921447</dc:date>
    <dc:format>image/svg+xml</dc:format>
    <dc:creator>
     <cc:Agent>
      <dc:title>Matplotlib v3.10.8, https://matplotlib.org/</dc:title>
     </cc:Agent>
    </dc:creator>
   </cc:Work>
  </rdf:RDF>
 </metadata>
 <defs>
  <style type="text/css">*{stroke-linejoin: round; stroke-linecap: butt}</style>
 </defs>
 <g id="figure_1">
  <g id="patch_1">
   <path d="M 0 352.8 
L 691.2 352.8 
L 691.2 0 
L 0 0 
z
" style="fill: #ffffff"/>
  </g>
  <g id="axes_1">
   <g id="patch_2">
    <a target="_top" xlink:href="../Notebook_01.html">
     <path d="M 38.436923 202.430769 
L 173.796923 202.430769 
Q 192.018462 202.430769 192.018462 184.209231 
L 192.018462 100.910769 
Q 192.018462 82.689231 173.796923 82.689231 
L 38.436923 82.689231 
Q 20.215385 82.689231 20.215385 100.910769 
L 20.215385 184.209231 
Q 20.215385 202.430769 38.436923 202.430769 
z
" clip-path="url(#p72aed4b95e)" style="fill: #3b6ea5; opacity: 0.18"/>
    </a>
   </g>
   <g id="patch_3">
    <a target="_top" xlink:href="../Notebook_06.html">
     <path d="M 241.476923 202.430769 
L 376.836923 202.430769 
Q 395.058462 202.430769 395.058462 184.209231 
L 395.058462 100.910769 
Q 395.058462 82.689231 376.836923 82.689231 
L 241.476923 82.689231 
Q 223.255385 82.689231 223.255385 100.910769 
L 223.255385 184.209231 
Q 223.255385 202.430769 241.476923 202.430769 
z
" clip-path="url(#p72aed4b95e)" style="fill: #e07b39; opacity: 0.18"/>
    </a>
   </g>
   <g id="patch_4">
    <a target="_top" xlink:href="../Notebook_06.html#research-summary">
     <path d="M 241.476923 342.996923 
L 376.836923 342.996923 
Q 395.058462 342.996923 395.058462 324.775385 
L 395.058462 241.476923 
Q 395.058462 223.255385 376.836923 223.255385 
L 241.476923 223.255385 
Q 223.255385 223.255385 223.255385 241.476923 
L 223.255385 324.775385 
Q 223.255385 342.996923 241.476923 342.996923 
z
" clip-path="url(#p72aed4b95e)" style="fill: #3a9a5b; opacity: 0.18"/>
    </a>
   </g>
   <g id="line2d_1">
    <path d="M 527.815385 83.209846 
L 475.753846 113.405538 
" clip-path="url(#p72aed4b95e)" style="fill: none; stroke: #bbbbbb; stroke-width: 1.8; stroke-linecap: square"/>
   </g>
   <g id="line2d_2">
    <path d="M 527.815385 83.209846 
L 527.815385 113.405538 
" clip-path="url(#p72aed4b95e)" style="fill: none; stroke: #bbbbbb; stroke-width: 1.8; stroke-linecap: square"/>
   </g>
   <g id="line2d_3">
    <path d="M 527.815385 83.209846 
L 579.876923 113.405538 
" clip-path="url(#p72aed4b95e)" style="fill: none; stroke: #bbbbbb; stroke-width: 1.8; stroke-linecap: square"/>
   </g>
   <g id="line2d_4">
    <path d="M 527.815385 140.477538 
L 501.784615 170.673231 
" clip-path="url(#p72aed4b95e)" style="fill: none; stroke: #bbbbbb; stroke-width: 1.8; stroke-linecap: square"/>
   </g>
   <g id="line2d_5">
    <path d="M 527.815385 140.477538 
L 553.846154 170.673231 
" clip-path="url(#p72aed4b95e)" style="fill: none; stroke: #bbbbbb; stroke-width: 1.8; stroke-linecap: square"/>
   </g>
   <g id="line2d_6">
    <path d="M 553.846154 197.745231 
L 533.021538 227.940923 
" clip-path="url(#p72aed4b95e)" style="fill: none; stroke: #bbbbbb; stroke-width: 1.8; stroke-linecap: square"/>
   </g>
   <g id="line2d_7">
    <path d="M 553.846154 197.745231 
L 574.670769 227.940923 
" clip-path="url(#p72aed4b95e)" style="fill: none; stroke: #bbbbbb; stroke-width: 1.8; stroke-linecap: square"/>
   </g>
   <g id="line2d_8">
    <path d="M 475.753846 140.477538 
L 475.753846 170.673231 
" clip-path="url(#p72aed4b95e)" style="fill: none; stroke: #bbbbbb; stroke-width: 1.8; stroke-linecap: square"/>
   </g>
   <g id="text_1">
    <text style="font-weight: 700; font-size: 14px; font-family: 'DejaVu Sans', 'Bitstream Vera Sans', 'Computer Modern Sans Serif', 'Lucida Grande', 'Verdana', 'Geneva', 'Lucid', 'Arial', 'Helvetica', 'Avant Garde', sans-serif; text-anchor: start; fill: #333333" x="17.612308" y="23.043966" transform="rotate(-0 17.612308 23.043966)">a</text>
   </g>
   <g id="text_2">
    <text style="font-style: italic; font-size: 12px; font-family: 'DejaVu Sans', 'Bitstream Vera Sans', 'Computer Modern Sans Serif', 'Lucida Grande', 'Verdana', 'Geneva', 'Lucid', 'Arial', 'Helvetica', 'Avant Garde', sans-serif; text-anchor: start; fill: #444444" x="137.353846" y="26.730433" transform="rotate(-0 137.353846 26.730433)">Agentic hyper-parameter optimization</text>
   </g>
   <g id="text_3">
    <text style="font-weight: 700; font-size: 12px; font-family: 'DejaVu Sans', 'Bitstream Vera Sans', 'Computer Modern Sans Serif', 'Lucida Grande', 'Verdana', 'Geneva', 'Lucid', 'Arial', 'Helvetica', 'Avant Garde', sans-serif; text-anchor: middle; fill: #3b6ea5" x="106.116923" y="130.252788" transform="rotate(-0 106.116923 130.252788)">Experiment</text>
   </g>
   <g id="text_4">
    <text style="font-size: 8.5px; font-family: 'DejaVu Sans', 'Bitstream Vera Sans', 'Computer Modern Sans Serif', 'Lucida Grande', 'Verdana', 'Geneva', 'Lucid', 'Arial', 'Helvetica', 'Avant Garde', sans-serif; fill: #3b6ea5" transform="translate(78.64997 152.838849)">GNN training</text>
    <text style="font-size: 8.5px; font-family: 'DejaVu Sans', 'Bitstream Vera Sans', 'Computer Modern Sans Serif', 'Lucida Grande', 'Verdana', 'Geneva', 'Lucid', 'Arial', 'Helvetica', 'Avant Garde', sans-serif; fill: #3b6ea5" transform="translate(74.72204 163.002857)">(4 seeds, GPU)</text>
   </g>
   <g id="text_5">
    <text style="font-weight: 700; font-size: 12px; font-family: 'DejaVu Sans', 'Bitstream Vera Sans', 'Computer Modern Sans Serif', 'Lucida Grande', 'Verdana', 'Geneva', 'Lucid', 'Arial', 'Helvetica', 'Avant Garde', sans-serif; text-anchor: middle; fill: #e07b39" x="309.156923" y="130.252788" transform="rotate(-0 309.156923 130.252788)">Claude Code</text>
   </g>
   <g id="text_6">
    <text style="font-size: 8.5px; font-family: 'DejaVu Sans', 'Bitstream Vera Sans', 'Computer Modern Sans Serif', 'Lucida Grande', 'Verdana', 'Geneva', 'Lucid', 'Arial', 'Helvetica', 'Avant Garde', sans-serif; fill: #e07b39" transform="translate(262.199736 152.838849)">interpret, hypothesize</text>
    <text style="font-size: 8.5px; font-family: 'DejaVu Sans', 'Bitstream Vera Sans', 'Computer Modern Sans Serif', 'Lucida Grande', 'Verdana', 'Geneva', 'Lucid', 'Arial', 'Helvetica', 'Avant Garde', sans-serif; fill: #e07b39" transform="translate(284.526181 163.002857)">&amp; configure</text>
   </g>
   <g id="text_7">
    <text style="font-weight: 700; font-size: 11px; font-family: 'DejaVu Sans', 'Bitstream Vera Sans', 'Computer Modern Sans Serif', 'Lucida Grande', 'Verdana', 'Geneva', 'Lucid', 'Arial', 'Helvetica', 'Avant Garde', sans-serif; text-anchor: middle; fill: #3a9a5b" x="309.156923" y="270.500036" transform="rotate(-0 309.156923 270.500036)">Research Summary</text>
   </g>
   <g id="text_8">
    <text style="font-size: 8.5px; font-family: 'DejaVu Sans', 'Bitstream Vera Sans', 'Computer Modern Sans Serif', 'Lucida Grande', 'Verdana', 'Geneva', 'Lucid', 'Arial', 'Helvetica', 'Avant Garde', sans-serif; fill: #3a9a5b" transform="translate(261.385595 290.801926)">principles, hypotheses</text>
    <text style="font-size: 8.5px; font-family: 'DejaVu Sans', 'Bitstream Vera Sans', 'Computer Modern Sans Serif', 'Lucida Grande', 'Verdana', 'Geneva', 'Lucid', 'Arial', 'Helvetica', 'Avant Garde', sans-serif; fill: #3a9a5b" transform="translate(264.112236 300.965934)">&amp; experiment history</text>
   </g>
   <g id="patch_5">
    <path d="M 175.80039 129.544615 
Q 207.638516 129.544615 237.016968 129.544615 
" style="fill: none; stroke: #444444; stroke-width: 2.2; stroke-linecap: round"/>
    <path d="M 229.816968 125.944615 
L 237.016968 129.544615 
L 229.816968 133.144615 
z
" style="fill: #444444; stroke: #444444; stroke-width: 2.2; stroke-linecap: round"/>
   </g>
   <g id="text_9">
    <text style="font-style: italic; font-size: 8px; font-family: 'DejaVu Sans', 'Bitstream Vera Sans', 'Computer Modern Sans Serif', 'Lucida Grande', 'Verdana', 'Geneva', 'Lucid', 'Arial', 'Helvetica', 'Avant Garde', sans-serif; text-anchor: middle; fill: #555555" x="207.636923" y="116.529231" transform="rotate(-0 207.636923 116.529231)">R², metrics</text>
   </g>
   <g id="patch_6">
    <path d="M 239.473456 158.178462 
Q 207.63533 158.178462 178.256878 158.178462 
" style="fill: none; stroke: #444444; stroke-width: 2.2; stroke-linecap: round"/>
    <path d="M 185.456878 161.778462 
L 178.256878 158.178462 
L 185.456878 154.578462 
z
" style="fill: #444444; stroke: #444444; stroke-width: 2.2; stroke-linecap: round"/>
   </g>
   <g id="text_10">
    <text style="font-style: italic; font-size: 8px; font-family: 'DejaVu Sans', 'Bitstream Vera Sans', 'Computer Modern Sans Serif', 'Lucida Grande', 'Verdana', 'Geneva', 'Lucid', 'Arial', 'Helvetica', 'Avant Garde', sans-serif; text-anchor: middle; fill: #555555" x="207.636923" y="171.193846" transform="rotate(-0 207.636923 171.193846)">next config</text>
   </g>
   <g id="patch_7">
    <path d="M 296.141538 186.212062 
Q 296.141538 212.844369 296.141538 237.017 
" style="fill: none; stroke: #444444; stroke-width: 2.2; stroke-linecap: round"/>
    <path d="M 299.741538 229.817 
L 296.141538 237.017 
L 292.541538 229.817 
z
" style="fill: #444444; stroke: #444444; stroke-width: 2.2; stroke-linecap: round"/>
   </g>
   <g id="patch_8">
    <path d="M 322.172308 239.474092 
Q 322.172308 212.841785 322.172308 188.669154 
" style="fill: none; stroke: #444444; stroke-width: 2.2; stroke-linecap: round"/>
    <path d="M 318.572308 195.869154 
L 322.172308 188.669154 
L 325.772308 195.869154 
z
" style="fill: #444444; stroke: #444444; stroke-width: 2.2; stroke-linecap: round"/>
   </g>
   <g id="text_11">
    <text style="font-style: italic; font-size: 8px; font-family: 'DejaVu Sans', 'Bitstream Vera Sans', 'Computer Modern Sans Serif', 'Lucida Grande', 'Verdana', 'Geneva', 'Lucid', 'Arial', 'Helvetica', 'Avant Garde', sans-serif; text-anchor: start; fill: #555555" x="353.409231" y="215.446154" transform="rotate(-0 353.409231 215.446154)">read / write</text>
   </g>
   <g id="text_12">
    <text style="font-weight: 700; font-size: 14px; font-family: 'DejaVu Sans', 'Bitstream Vera Sans', 'Computer Modern Sans Serif', 'Lucida Grande', 'Verdana', 'Geneva', 'Lucid', 'Arial', 'Helvetica', 'Avant Garde', sans-serif; text-anchor: start; fill: #333333" x="423.692308" y="23.043966" transform="rotate(-0 423.692308 23.043966)">b</text>
   </g>
   <g id="text_13">
    <text style="font-style: italic; font-size: 12px; font-family: 'DejaVu Sans', 'Bitstream Vera Sans', 'Computer Modern Sans Serif', 'Lucida Grande', 'Verdana', 'Geneva', 'Lucid', 'Arial', 'Helvetica', 'Avant Garde', sans-serif; text-anchor: start; fill: #444444" x="465.341538" y="26.730433" transform="rotate(-0 465.341538 26.730433)">UCB tree search</text>
   </g>
   <g id="patch_9">
    <path d="M 527.815385 83.209846 
C 531.405174 83.209846 534.848418 81.783608 537.386782 79.245244 
C 539.925146 76.706879 541.351385 73.263635 541.351385 69.673846 
C 541.351385 66.084057 539.925146 62.640813 537.386782 60.102449 
C 534.848418 57.564085 531.405174 56.137846 527.815385 56.137846 
C 524.225595 56.137846 520.782351 57.564085 518.243987 60.102449 
C 515.705623 62.640813 514.279385 66.084057 514.279385 69.673846 
C 514.279385 73.263635 515.705623 76.706879 518.243987 79.245244 
C 520.782351 81.783608 524.225595 83.209846 527.815385 83.209846 
z
" clip-path="url(#p72aed4b95e)" style="fill: #888888; opacity: 0.45; stroke: #ffffff; stroke-width: 2; stroke-linejoin: miter"/>
   </g>
   <g id="patch_10">
    <path d="M 475.753846 140.477538 
C 479.343635 140.477538 482.786879 139.0513 485.325244 136.512936 
C 487.863608 133.974572 489.289846 130.531328 489.289846 126.941538 
C 489.289846 123.351749 487.863608 119.908505 485.325244 117.370141 
C 482.786879 114.831777 479.343635 113.405538 475.753846 113.405538 
C 472.164057 113.405538 468.720813 114.831777 466.182449 117.370141 
C 463.644085 119.908505 462.217846 123.351749 462.217846 126.941538 
C 462.217846 130.531328 463.644085 133.974572 466.182449 136.512936 
C 468.720813 139.0513 472.164057 140.477538 475.753846 140.477538 
z
" clip-path="url(#p72aed4b95e)" style="fill: #888888; opacity: 0.45; stroke: #ffffff; stroke-width: 2; stroke-linejoin: miter"/>
   </g>
   <g id="patch_11">
    <path d="M 527.815385 140.477538 
C 531.405174 140.477538 534.848418 139.0513 537.386782 136.512936 
C 539.925146 133.974572 541.351385 130.531328 541.351385 126.941538 
C 541.351385 123.351749 539.925146 119.908505 537.386782 117.370141 
C 534.848418 114.831777 531.405174 113.405538 527.815385 113.405538 
C 524.225595 113.405538 520.782351 114.831777 518.243987 117.370141 
C 515.705623 119.908505 514.279385 123.351749 514.279385 126.941538 
C 514.279385 130.531328 515.705623 133.974572 518.243987 136.512936 
C 520.782351 139.0513 524.225595 140.477538 527.815385 140.477538 
z
" clip-path="url(#p72aed4b95e)" style="fill: #888888; opacity: 0.45; stroke: #ffffff; stroke-width: 2; stroke-linejoin: miter"/>
   </g>
   <g id="patch_12">
    <path d="M 579.876923 140.477538 
C 583.466712 140.477538 586.909956 139.0513 589.44832 136.512936 
C 591.986685 133.974572 593.412923 130.531328 593.412923 126.941538 
C 593.412923 123.351749 591.986685 119.908505 589.44832 117.370141 
C 586.909956 114.831777 583.466712 113.405538 579.876923 113.405538 
C 576.287134 113.405538 572.84389 114.831777 570.305526 117.370141 
C 567.767161 119.908505 566.340923 123.351749 566.340923 126.941538 
C 566.340923 130.531328 567.767161 133.974572 570.305526 136.512936 
C 572.84389 139.0513 576.287134 140.477538 579.876923 140.477538 
z
" clip-path="url(#p72aed4b95e)" style="fill: #888888; opacity: 0.45; stroke: #ffffff; stroke-width: 2; stroke-linejoin: miter"/>
   </g>
   <g id="patch_13">
    <path d="M 501.784615 197.745231 
C 505.374405 197.745231 508.817649 196.318992 511.356013 193.780628 
C 513.894377 191.242264 515.320615 187.79902 515.320615 184.209231 
C 515.320615 180.619442 513.894377 177.176198 511.356013 174.637833 
C 508.817649 172.099469 505.374405 170.673231 501.784615 170.673231 
C 498.194826 170.673231 494.751582 172.099469 492.213218 174.637833 
C 489.674854 177.176198 488.248615 180.619442 488.248615 184.209231 
C 488.248615 187.79902 489.674854 191.242264 492.213218 193.780628 
C 494.751582 196.318992 498.194826 197.745231 501.784615 197.745231 
z
" clip-path="url(#p72aed4b95e)" style="fill: #888888; opacity: 0.45; stroke: #ffffff; stroke-width: 2; stroke-linejoin: miter"/>
   </g>
   <g id="patch_14">
    <path d="M 553.846154 197.745231 
C 557.435943 197.745231 560.879187 196.318992 563.417551 193.780628 
C 565.955915 191.242264 567.382154 187.79902 567.382154 184.209231 
C 567.382154 180.619442 565.955915 177.176198 563.417551 174.637833 
C 560.879187 172.099469 557.435943 170.673231 553.846154 170.673231 
C 550.256365 170.673231 546.813121 172.099469 544.274756 174.637833 
C 541.736392 177.176198 540.310154 180.619442 540.310154 184.209231 
C 540.310154 187.79902 541.736392 191.242264 544.274756 193.780628 
C 546.813121 196.318992 550.256365 197.745231 553.846154 197.745231 
z
" clip-path="url(#p72aed4b95e)" style="fill: #c44e52; stroke: #ffffff; stroke-width: 2; stroke-linejoin: miter"/>
   </g>
   <g id="patch_15">
    <path d="M 533.021538 255.012923 
C 536.611328 255.012923 540.054572 253.586685 542.592936 251.04832 
C 545.1313 248.509956 546.557538 245.066712 546.557538 241.476923 
C 546.557538 237.887134 545.1313 234.44389 542.592936 231.905526 
C 540.054572 229.367161 536.611328 227.940923 533.021538 227.940923 
C 529.431749 227.940923 525.988505 229.367161 523.450141 231.905526 
C 520.911777 234.44389 519.485538 237.887134 519.485538 241.476923 
C 519.485538 245.066712 520.911777 248.509956 523.450141 251.04832 
C 525.988505 253.586685 529.431749 255.012923 533.021538 255.012923 
z
" clip-path="url(#p72aed4b95e)" style="fill: #888888; opacity: 0.45; stroke: #ffffff; stroke-width: 2; stroke-linejoin: miter"/>
   </g>
   <g id="patch_16">
    <path d="M 574.670769 255.012923 
C 578.260558 255.012923 581.703802 253.586685 584.242167 251.04832 
C 586.780531 248.509956 588.206769 245.066712 588.206769 241.476923 
C 588.206769 237.887134 586.780531 234.44389 584.242167 231.905526 
C 581.703802 229.367161 578.260558 227.940923 574.670769 227.940923 
C 571.08098 227.940923 567.637736 229.367161 565.099372 231.905526 
C 562.561008 234.44389 561.134769 237.887134 561.134769 241.476923 
C 561.134769 245.066712 562.561008 248.509956 565.099372 251.04832 
C 567.637736 253.586685 571.08098 255.012923 574.670769 255.012923 
z
" clip-path="url(#p72aed4b95e)" style="fill: #c44e52; stroke: #ffffff; stroke-width: 2; stroke-linejoin: miter"/>
   </g>
   <g id="patch_17">
    <path d="M 475.753846 197.745231 
C 479.343635 197.745231 482.786879 196.318992 485.325244 193.780628 
C 487.863608 191.242264 489.289846 187.79902 489.289846 184.209231 
C 489.289846 180.619442 487.863608 177.176198 485.325244 174.637833 
C 482.786879 172.099469 479.343635 170.673231 475.753846 170.673231 
C 472.164057 170.673231 468.720813 172.099469 466.182449 174.637833 
C 463.644085 177.176198 462.217846 180.619442 462.217846 184.209231 
C 462.217846 187.79902 463.644085 191.242264 466.182449 193.780628 
C 468.720813 196.318992 472.164057 197.745231 475.753846 197.745231 
z
" clip-path="url(#p72aed4b95e)" style="fill: #888888; opacity: 0.45; stroke: #ffffff; stroke-width: 2; stroke-linejoin: miter"/>
   </g>
   <g id="text_14">
    <text style="font-style: italic; font-size: 8.5px; font-family: 'DejaVu Sans', 'Bitstream Vera Sans', 'Computer Modern Sans Serif', 'Lucida Grande', 'Verdana', 'Geneva', 'Lucid', 'Arial', 'Helvetica', 'Avant Garde', sans-serif; fill: #c44e52" transform="translate(481.861596 280.389619)">exploit best branches</text>
    <text style="font-style: italic; font-size: 8.5px; font-family: 'DejaVu Sans', 'Bitstream Vera Sans', 'Computer Modern Sans Serif', 'Lucida Grande', 'Verdana', 'Geneva', 'Lucid', 'Arial', 'Helvetica', 'Avant Garde', sans-serif; fill: #c44e52" transform="translate(473.876244 290.553627)">+ explore uncertain ones</text>
   </g>
   <g id="text_15">
    <text style="font-weight: 700; font-size: 7.5px; font-family: 'DejaVu Sans', 'Bitstream Vera Sans', 'Computer Modern Sans Serif', 'Lucida Grande', 'Verdana', 'Geneva', 'Lucid', 'Arial', 'Helvetica', 'Avant Garde', sans-serif; text-anchor: middle; fill: #ffffff" x="527.815385" y="71.743377" transform="rotate(-0 527.815385 71.743377)">.94</text>
   </g>
   <g id="text_16">
    <text style="font-weight: 700; font-size: 7.5px; font-family: 'DejaVu Sans', 'Bitstream Vera Sans', 'Computer Modern Sans Serif', 'Lucida Grande', 'Verdana', 'Geneva', 'Lucid', 'Arial', 'Helvetica', 'Avant Garde', sans-serif; text-anchor: middle; fill: #ffffff" x="475.753846" y="129.01107" transform="rotate(-0 475.753846 129.01107)">.95</text>
   </g>
   <g id="text_17">
    <text style="font-weight: 700; font-size: 7.5px; font-family: 'DejaVu Sans', 'Bitstream Vera Sans', 'Computer Modern Sans Serif', 'Lucida Grande', 'Verdana', 'Geneva', 'Lucid', 'Arial', 'Helvetica', 'Avant Garde', sans-serif; text-anchor: middle; fill: #ffffff" x="527.815385" y="129.01107" transform="rotate(-0 527.815385 129.01107)">.97</text>
   </g>
   <g id="text_18">
    <text style="font-weight: 700; font-size: 7.5px; font-family: 'DejaVu Sans', 'Bitstream Vera Sans', 'Computer Modern Sans Serif', 'Lucida Grande', 'Verdana', 'Geneva', 'Lucid', 'Arial', 'Helvetica', 'Avant Garde', sans-serif; text-anchor: middle; fill: #ffffff" x="579.876923" y="129.01107" transform="rotate(-0 579.876923 129.01107)">.91</text>
   </g>
   <g id="text_19">
    <text style="font-weight: 700; font-size: 7.5px; font-family: 'DejaVu Sans', 'Bitstream Vera Sans', 'Computer Modern Sans Serif', 'Lucida Grande', 'Verdana', 'Geneva', 'Lucid', 'Arial', 'Helvetica', 'Avant Garde', sans-serif; text-anchor: middle; fill: #ffffff" x="501.784615" y="186.278762" transform="rotate(-0 501.784615 186.278762)">.96</text>
   </g>
   <g id="text_20">
    <text style="font-weight: 700; font-size: 7.5px; font-family: 'DejaVu Sans', 'Bitstream Vera Sans', 'Computer Modern Sans Serif', 'Lucida Grande', 'Verdana', 'Geneva', 'Lucid', 'Arial', 'Helvetica', 'Avant Garde', sans-serif; text-anchor: middle; fill: #ffffff" x="553.846154" y="186.278762" transform="rotate(-0 553.846154 186.278762)">.98</text>
   </g>
   <g id="text_21">
    <text style="font-weight: 700; font-size: 7.5px; font-family: 'DejaVu Sans', 'Bitstream Vera Sans', 'Computer Modern Sans Serif', 'Lucida Grande', 'Verdana', 'Geneva', 'Lucid', 'Arial', 'Helvetica', 'Avant Garde', sans-serif; text-anchor: middle; fill: #ffffff" x="533.021538" y="243.546454" transform="rotate(-0 533.021538 243.546454)">.97</text>
   </g>
   <g id="text_22">
    <text style="font-weight: 700; font-size: 7.5px; font-family: 'DejaVu Sans', 'Bitstream Vera Sans', 'Computer Modern Sans Serif', 'Lucida Grande', 'Verdana', 'Geneva', 'Lucid', 'Arial', 'Helvetica', 'Avant Garde', sans-serif; text-anchor: middle; fill: #ffffff" x="574.670769" y="243.546454" transform="rotate(-0 574.670769 243.546454)">.98</text>
   </g>
   <g id="text_23">
    <text style="font-weight: 700; font-size: 7.5px; font-family: 'DejaVu Sans', 'Bitstream Vera Sans', 'Computer Modern Sans Serif', 'Lucida Grande', 'Verdana', 'Geneva', 'Lucid', 'Arial', 'Helvetica', 'Avant Garde', sans-serif; text-anchor: middle; fill: #ffffff" x="475.753846" y="186.278762" transform="rotate(-0 475.753846 186.278762)">.92</text>
   </g>
  </g>
 </g>
 <defs>
  <clipPath id="p72aed4b95e">
   <rect x="7.2" y="7.2" width="676.8" height="338.4"/>
  </clipPath>
 </defs>
</svg>
